<?xml version="1.0" encoding="utf-8"?>
<!-- Generator: Adobe Illustrator 21.0.0, SVG Export Plug-In . SVG Version: 6.00 Build 0)  -->
<svg version="1.1" id="图层_1" xmlns="http://www.w3.org/2000/svg" xmlns:xlink="http://www.w3.org/1999/xlink" x="0px" y="0px"
	 viewBox="0 0 158.7 90.7" style="enable-background:new 0 0 158.7 90.7;" xml:space="preserve">
<style type="text/css">
	.st0{fill:#EEEEEE;}
	.st1{fill:#CCCCCC;}
</style>
<title>more</title>
<g id="Page-1">
	<g id="more" transform="translate(0.400000, 0.000000)">
		<path id="Shape" class="st0" d="M93,51.6c0.8-14.3,7.4-22.7,13-27.2c-1.1-0.2-2.5-0.5-4.2-0.8c-16.3,7.7-33.7,29.7-33.7,40.9
			c0,12.6,16.5,23,38,24.7C100.9,83,91.8,72.4,93,51.6z"/>
		<path id="Shape_1_" class="st1" d="M143.6,83.2c-8.6,4.8-20,7.5-32.1,7.5S88,88,79.4,83.2c-8.9-5-13.7-11.7-13.7-19
			c0-7,6.2-18,15.8-28.1c5.4-5.6,11.1-10.1,16.5-13c-1.8-0.4-3.5-0.9-5.3-1.7c-1.1-0.5-2.3-1-3.3-1.8c-1.1-0.7-2.1-1.6-2.8-2.9
			c-0.3-0.6-0.6-1.3-0.7-2.1c0-0.4,0-0.8,0-1.2c0.1-0.4,0.2-0.8,0.3-1.2c0.2-0.4,0.4-0.7,0.6-1c0.3-0.3,0.5-0.6,0.8-0.8
			c0.6-0.5,1.2-0.8,1.9-1c1.2-0.4,2.4-0.5,3.6-0.6c-0.3-0.5-0.5-1-0.7-1.5C92.2,6.8,92,6,92.3,5.1C92.5,4.3,93,3.5,93.7,3
			c0.7-0.5,1.4-0.8,2.1-0.9c0.7-0.2,1.4-0.2,2.1-0.3c1.4,0,2.8,0.2,4.1,0.5c1.1,0.3,2.2,0.7,3.2,1.2c0.1-0.7,0.4-1.4,0.8-2
			c0.5-0.6,1.2-1.1,1.8-1.3s1.4-0.3,2-0.3c0.6,0,1.3,0.1,1.9,0.3c1.2,0.4,2.3,1,3.2,1.8c0.9,0.8,1.7,1.7,2.4,2.6
			c1.4,2,2.2,4.2,2.6,6.5c0.2,1.1,0.4,2.3,0.4,3.4c0,0.6,0,1.1,0,1.7c0,0.6,0,1.1-0.1,1.7c-0.1,0.9-0.2,1.9-0.3,2.8
			c6.8,2.6,14.3,7.9,21.4,15.3c9.6,10,15.8,21,15.8,28.1C157.3,71.5,152.5,78.2,143.6,83.2z M139.4,38.2
			c-6.6-6.9-13.6-11.9-19.8-14.4c-0.1,0.3-0.2,0.6-0.2,0.9c0.3-2.2,0.4-4.5,0.4-6.7c0-0.6,0-1.1-0.1-1.7c-0.1-0.6-0.1-1.1-0.2-1.7
			c-0.2-1.1-0.4-2.2-0.6-3.2c-0.6-2.1-1.5-4.1-2.8-5.8c-0.6-0.8-1.4-1.6-2.2-2.2c-0.8-0.6-1.7-1.1-2.7-1.3c-0.5-0.1-0.9-0.2-1.4-0.2
			c-0.5,0-0.9,0.1-1.3,0.3c-0.4,0.2-0.6,0.4-0.9,0.6c-0.2,0.3-0.3,0.6-0.4,1.1c0,0.3,0,0.5,0,0.8c1.7,1.1,3.2,2.6,4.5,4.2
			c0.8,1.1,1.5,2.2,2,3.4c0.5,1.2,1,2.5,1.3,3.7c0.3,1.3,0.5,2.6,0.5,3.9s0,2.6-0.2,3.9c-0.1-0.6-0.1-1.3-0.2-1.9
			c0-0.3-0.1-0.6-0.1-0.9l-0.2-0.9c-0.2-1.2-0.6-2.5-1-3.6s-0.9-2.3-1.5-3.4c-0.6-1.1-1.3-2.1-2.1-3c-0.8-0.9-1.7-1.7-2.6-2.5
			c-0.9-0.8-2-1.4-3.1-1.9c-2.2-1.1-4.5-1.7-6.8-1.7c-1.1,0-2.3,0.2-3,0.8c-0.3,0.3-0.6,0.6-0.6,0.9c-0.1,0.4-0.1,0.9,0.1,1.4
			c0.2,0.8,0.8,1.7,1.4,2.3c0.5,0.1,0.9,0.2,1.4,0.3c1.2,0.3,2.4,0.7,3.5,1.2c1.1,0.5,2.2,1.1,3.3,1.8c4.2,2.7,7.3,6.7,9.2,11.1
			c-2.7-4-6.1-7.4-10.1-9.6c-0.5-0.3-1-0.5-1.5-0.8c-0.5-0.3-1.1-0.5-1.6-0.7c-1.1-0.4-2.2-0.8-3.3-1c-1.1-0.2-2.2-0.4-3.3-0.4
			c-1.1,0-2.2,0.2-3.2,0.5s-1.8,0.9-2.1,1.6c-0.2,0.3-0.2,0.8-0.2,1.2c0.1,0.5,0.2,0.9,0.4,1.3c0.5,0.9,1.2,1.7,2.1,2.3
			c0.9,0.7,1.9,1.2,2.9,1.8c2.1,1,4.3,1.9,6.6,2.6s4.6,1.3,6.9,1.9c-1.4,0-2.7-0.2-4-0.4c-6.1,2.6-12.8,7.5-19.2,14.2
			c-8.9,9.3-14.9,19.8-14.9,26c0,6.1,4.3,11.9,12.3,16.4c8.2,4.6,19.1,7.1,30.7,7.1c11.6,0,22.5-2.5,30.7-7.1
			c7.9-4.5,12.3-10.3,12.3-16.4C154.4,58,148.4,47.6,139.4,38.2z M142.3,60.6v0.1c0,0.1,0,0.2,0,0.3c-0.1,0.4-0.3,0.7-0.4,0.8
			c-0.1,0.2-0.2,0.3-0.3,0.3c-0.2,0.2-0.4,0.3-0.5,0.5c-0.3,0.2-0.5,0.4-0.8,0.6c-0.5,0.3-1.1,0.6-1.5,0.8c-0.9,0.5-1.9,0.9-2.9,1.3
			c-1.8,0.8-3.8,1.5-5.9,2.2c-4.4,1.4-8.3,2.6-12,3.4h-0.2c-0.3,0-0.6-0.2-0.7-0.5c-0.1-0.3,0-0.8,0.4-0.9c3.3-1.5,6.6-2.9,9.9-4.3
			l2.3-1c1.6-0.7,3.2-1.4,4.8-2.1c0.9-0.4,1.8-0.8,2.7-1.3c0.1,0,0.2-0.1,0.3-0.2c-0.1,0-0.2-0.1-0.2-0.1c-0.8-0.4-1.5-0.8-2.3-1.2
			l-0.5-0.2l-5.5-2.6c-3.5-1.7-7.4-3.5-11.1-5.5c-0.3-0.2-0.5-0.6-0.3-0.9s0.5-0.5,0.9-0.5c3.6,1,7.5,2.3,11.8,4
			c2.1,0.8,4,1.6,5.8,2.4c1,0.4,1.9,0.9,2.9,1.4c0.5,0.3,1,0.5,1.5,0.8c0.2,0.2,0.5,0.3,0.8,0.5c0.1,0.1,0.3,0.2,0.5,0.4
			c0,0,0.1,0.2,0.2,0.2c0,0.1,0.1,0.1,0.1,0.2c0,0.1,0.1,0.2,0.1,0.2l0.1,0.2c0,0,0,0,0,0.1l0,0.1c0.1,0.2,0.1,0.3,0.1,0.5
			C142.3,60.5,142.3,60.6,142.3,60.6z M128.7,42.7c-1.2,0-2.3-1-2.3-2.3s1-2.3,2.3-2.3c1.2,0,2.3,1,2.3,2.3S129.9,42.7,128.7,42.7z
			 M12,40c0.9-1,1.8-2,2.7-2.9h57c-0.9,1-1.8,2-2.7,2.9H12z M57.6,57.8h-57c0.4-0.9,0.8-2,1.3-2.9h57C58.3,55.9,57.9,56.9,57.6,57.8
			z M61,75.6H4c-0.9-0.9-1.6-1.9-2.3-2.9h57C59.4,73.7,60.1,74.6,61,75.6z"/>
	</g>
</g>
</svg>
